<?xml version="1.0" standalone="no"?>
<!DOCTYPE svg PUBLIC "-//W3C//DTD SVG 20010904//EN"
 "http://www.w3.org/TR/2001/REC-SVG-20010904/DTD/svg10.dtd">
<svg version="1.0" xmlns="http://www.w3.org/2000/svg"
 width="800.000000pt" height="800.000000pt" viewBox="0 0 800.000000 800.000000"
 preserveAspectRatio="xMidYMid meet">
<metadata>
Created by potrace 1.14, written by Peter Selinger 2001-2017
</metadata>
<g transform="translate(0.000000,800.000000) scale(0.100000,-0.100000)"
fill="#000000" stroke="none">
<path d="M2250 5800 c0 -11 4 -20 8 -20 4 0 8 9 8 20 0 11 -4 20 -8 20 -4 0
-8 -9 -8 -20z"/>
<path d="M2289 5790 c-4 -3 1 -11 12 -19 12 -7 18 -8 14 -2 -3 7 2 11 14 11
12 0 21 3 21 8 0 8 -47 10 -61 2z"/>
<path d="M2299 5743 c-1 -5 -1 -12 0 -17 1 -5 -4 -13 -10 -17 -10 -6 -10 -11
2 -25 13 -16 11 -17 -18 -12 -20 3 -34 0 -37 -8 -3 -7 2 -10 15 -7 35 9 47 -3
40 -39 -5 -23 -12 -32 -24 -30 -9 2 -17 -2 -17 -7 0 -5 9 -8 21 -6 13 3 19 0
16 -8 -2 -7 -10 -12 -18 -13 -22 -1 -50 16 -44 27 4 5 1 9 -4 9 -6 0 -11 -7
-11 -15 0 -16 -10 -19 -26 -7 -5 4 2 -3 16 -16 14 -12 24 -28 22 -35 -3 -9 -1
-9 9 0 10 11 9 16 -7 29 -17 14 -17 15 -1 10 10 -3 21 -6 23 -6 2 0 4 -10 5
-22 1 -23 1 -23 8 1 6 21 8 22 20 7 10 -12 10 -16 1 -16 -10 0 -10 -3 0 -15
10 -12 10 -18 0 -30 -7 -8 -8 -15 -3 -15 14 0 15 -52 1 -78 -9 -18 -9 -27 0
-42 15 -25 16 -104 1 -95 -13 9 -148 9 -156 1 -13 -12 30 -45 68 -51 21 -4 39
-8 39 -10 0 -1 -6 -16 -12 -32 -10 -22 -18 -29 -33 -26 -11 2 -29 5 -40 7 -11
2 -20 4 -20 5 0 2 -7 4 -16 6 -9 1 -16 -3 -16 -11 0 -7 4 -11 8 -8 4 2 10 -2
12 -8 4 -10 6 -9 6 1 1 11 4 11 16 1 12 -10 15 -10 15 1 0 9 3 10 8 4 4 -6 16
-11 27 -10 16 0 19 -6 17 -30 -6 -59 -9 -70 -23 -71 -40 -3 -42 -4 -30 -17 8
-10 7 -17 -2 -27 -10 -10 -7 -11 14 -7 23 6 28 1 52 -48 l27 -55 -43 33 c-73
55 -207 112 -207 87 0 -5 8 -10 18 -10 10 0 19 -7 19 -15 0 -11 -11 -15 -38
-15 -28 0 -37 4 -35 16 1 8 9 20 17 25 9 7 -7 9 -51 8 -69 -3 -130 -17 -130
-31 0 -11 14 -10 26 1 5 6 35 12 66 15 l57 5 -1 -93 c-1 -82 -3 -94 -17 -89
-13 4 -13 2 2 -7 19 -13 24 -51 5 -46 -7 3 -24 7 -38 10 -23 5 -25 10 -24 56
0 30 6 55 13 59 10 6 9 9 -2 14 -10 4 -13 14 -9 32 4 24 3 26 -14 17 -11 -5
-22 -10 -27 -11 -13 -1 -43 -20 -31 -21 6 0 14 3 18 7 3 4 14 8 24 10 15 2 17
-6 16 -55 0 -38 -5 -56 -12 -55 -7 2 -12 -2 -12 -7 0 -6 7 -10 15 -10 18 0 20
-16 4 -26 -6 -3 -15 -1 -19 5 -5 9 -9 9 -18 -1 -8 -10 -3 -14 25 -16 56 -4 70
-16 70 -62 0 -22 -3 -40 -8 -40 -22 0 -36 13 -32 31 3 10 9 16 14 13 5 -3 9 0
9 5 0 6 -7 11 -15 11 -9 0 -12 6 -9 18 5 15 4 15 -5 1 -6 -9 -9 -26 -6 -38 3
-18 -1 -21 -29 -21 -37 0 -59 18 -47 39 5 8 5 27 1 42 -8 25 -6 30 16 35 13 3
21 10 18 16 -3 5 -11 4 -20 -3 -17 -14 -18 -5 -3 22 6 12 17 18 25 15 9 -3 12
-1 9 4 -3 6 -1 10 6 10 7 0 9 3 6 6 -4 4 -17 0 -30 -9 -21 -14 -24 -14 -35 1
-10 14 -10 13 -2 -5 8 -17 8 -23 -1 -23 -8 0 -10 -13 -5 -40 7 -45 -4 -51 -42
-25 -16 12 -20 13 -17 3 3 -8 19 -19 35 -25 31 -12 39 -30 17 -39 -8 -3 -26 0
-40 5 -24 9 -27 16 -27 56 0 28 4 44 10 40 6 -3 10 -2 10 4 0 5 -5 11 -12 13
-7 3 2 18 22 36 22 22 39 30 52 26 18 -5 26 10 9 20 -5 4 -7 20 -5 36 5 30 5
30 -23 18 -42 -18 -131 -85 -144 -109 -22 -42 -20 -65 12 -97 17 -17 47 -36
67 -43 20 -6 42 -15 48 -20 6 -5 13 -6 17 -3 3 3 14 1 25 -5 11 -6 35 -12 53
-15 60 -8 88 -23 84 -46 -5 -24 7 -26 25 -5 16 19 41 20 34 1 -6 -16 -53 -40
-74 -37 -11 1 -10 -1 3 -9 16 -10 16 -13 2 -27 -11 -11 -13 -19 -5 -27 5 -7 7
-15 4 -19 -8 -7 -37 3 -46 17 -5 7 -8 7 -8 -1 0 -7 -7 -13 -15 -13 -8 0 -15 6
-15 13 0 9 -3 8 -9 -2 -5 -7 -13 -11 -19 -7 -5 3 -56 8 -113 12 -57 3 -109 10
-115 15 -5 4 -16 38 -23 74 -7 36 -17 68 -22 71 -11 7 -11 1 1 -30 7 -19 6
-26 -3 -26 -9 0 -9 -2 -1 -8 7 -4 16 -24 22 -45 l11 -38 -55 6 c-30 3 -80 8
-111 11 -96 9 -102 12 -98 45 3 20 0 29 -10 29 -9 0 -12 -6 -8 -16 3 -9 6 -25
7 -37 1 -16 18 -31 63 -55 64 -34 203 -75 203 -60 0 4 -4 9 -10 9 -5 1 -14 3
-20 4 -5 1 -19 3 -31 4 -14 1 -19 6 -16 16 4 8 2 17 -3 20 -6 4 -10 -1 -10 -9
0 -17 -17 -20 -44 -10 -21 8 -20 24 2 25 15 0 14 2 -3 9 -13 6 1 7 40 3 33 -3
70 -5 82 -5 23 -1 42 -30 23 -36 -7 -3 -4 -10 7 -19 10 -8 12 -12 6 -8 -7 3
-13 2 -13 -3 0 -5 26 -15 58 -22 74 -18 72 -17 75 -20 1 -1 15 -4 32 -6 43 -7
52 -19 48 -61 -3 -21 -5 -62 -6 -91 -2 -28 -6 -52 -10 -52 -4 0 -12 0 -18 0
-5 0 -8 4 -4 9 11 19 -14 21 -27 2 -8 -11 -26 -23 -40 -26 -33 -8 -27 -35 8
-35 25 0 44 -26 36 -49 -2 -8 6 -22 19 -32 l24 -19 -27 0 c-16 0 -28 5 -28 10
0 6 -7 10 -17 8 -12 -2 -20 10 -29 46 -15 56 -20 63 -54 68 -14 2 -24 9 -22
16 1 8 -2 11 -8 7 -7 -5 -8 -11 -1 -19 6 -7 6 -17 1 -26 -6 -8 -10 -24 -10
-35 -1 -25 -54 -68 -77 -63 -10 2 -17 11 -15 19 3 19 -36 62 -49 54 -5 -4 -13
5 -19 19 -5 14 -11 26 -14 26 -11 0 -47 -91 -40 -102 4 -6 9 -47 10 -91 2 -77
16 -116 32 -90 4 6 18 13 32 14 23 4 25 8 24 50 -1 44 0 46 25 45 14 -1 39 -8
56 -16 26 -14 29 -20 30 -65 0 -42 -4 -55 -30 -84 -30 -32 -69 -45 -90 -30 -6
4 -16 4 -23 0 -9 -5 -7 -13 8 -29 22 -23 28 -68 8 -56 -7 4 -8 3 -4 -5 8 -13
-1 -45 -56 -188 l-39 -102 -37 4 c-53 4 -52 4 -52 14 0 5 11 12 25 15 18 5 25
13 25 31 0 14 -4 26 -10 26 -5 1 -16 2 -22 3 -7 2 -28 -6 -45 -17 -28 -16 -33
-16 -33 -3 0 8 -3 17 -8 20 -4 2 -7 -11 -6 -29 2 -46 -12 -67 -24 -35 -6 14
-6 26 -1 28 14 6 10 49 -6 66 -15 14 -32 15 -66 1 -10 -3 -20 -2 -24 4 -3 6
-17 11 -30 11 -28 0 -50 -28 -60 -77 -6 -28 -9 -31 -38 -28 -27 2 -38 -4 -70
-40 -34 -38 -38 -49 -44 -116 -3 -41 -6 -86 -6 -101 -1 -16 -4 -28 -7 -28 -4
0 -6 45 -6 100 1 56 -2 108 -6 118 -3 9 -5 -42 -4 -115 1 -120 0 -131 -16
-128 -10 2 -20 -1 -23 -6 -4 -5 -10 -7 -15 -4 -5 3 -18 2 -27 -3 -10 -6 -38
-12 -63 -15 -25 -3 -46 -6 -48 -6 -2 -1 -2 -7 -1 -13 4 -35 -3 -46 -31 -50
-22 -3 -30 -1 -31 11 0 14 -1 14 -7 0 -4 -9 -19 -15 -37 -15 l-30 1 -1 115 c0
63 1 119 4 124 6 11 31 -33 32 -56 0 -17 1 -17 18 0 10 9 15 19 12 22 -13 10
-69 118 -65 124 3 3 0 2 -7 -3 -7 -7 -11 -62 -10 -171 0 -116 -3 -162 -11
-165 -39 -12 -116 -14 -120 -2 -2 6 -7 -9 -11 -35 -7 -46 -8 -47 -62 -67 -30
-12 -59 -21 -64 -21 -11 0 -70 -49 -69 -58 3 -17 -3 -19 -41 -12 -22 4 -40 6
-40 5 0 -1 4 -15 9 -31 5 -16 21 -69 36 -119 38 -128 45 -145 64 -146 9 0 36
-2 61 -4 77 -6 222 -16 285 -20 55 -3 134 -8 290 -20 33 -2 103 -7 155 -11 52
-3 113 -7 135 -9 22 -1 94 -6 160 -10 66 -3 136 -8 155 -10 19 -2 78 -6 130
-9 52 -4 124 -9 160 -11 139 -10 236 -17 265 -20 17 -1 75 -6 130 -10 55 -4
116 -8 135 -10 19 -2 67 -6 105 -10 67 -5 91 -7 250 -20 39 -3 90 -8 115 -10
50 -5 152 -13 250 -20 36 -3 88 -7 115 -10 28 -3 79 -8 115 -10 36 -2 90 -6
120 -9 60 -6 167 -15 245 -21 127 -10 224 -18 360 -30 28 -2 88 -7 135 -10 47
-3 105 -8 130 -11 119 -11 181 -15 313 -19 317 -9 549 -16 672 -21 72 -3 139
-5 150 -4 25 2 16 2 155 -4 63 -3 196 -7 295 -10 99 -3 259 -8 356 -11 l175
-6 33 63 c18 35 43 81 55 103 12 22 46 85 75 140 30 55 74 138 99 185 25 47
50 87 54 88 4 2 8 8 8 14 0 25 324 587 399 693 59 82 422 556 445 581 12 13
27 32 74 91 23 29 29 44 21 49 -7 4 -9 3 -5 -4 6 -10 -10 -19 -52 -27 -11 -2
-36 -8 -56 -13 -20 -6 -37 -10 -37 -9 -7 9 -3 125 4 135 5 6 5 12 1 12 -10 0
-13 814 -3 824 3 3 49 6 102 7 91 1 101 -1 169 -34 40 -19 89 -38 108 -42 40
-9 181 -15 193 -8 4 3 -3 13 -16 23 -22 17 -87 135 -87 157 0 5 -12 24 -28 42
-20 24 -37 34 -65 36 -21 2 -52 11 -69 20 -17 8 -41 15 -53 15 -11 0 -40 14
-62 30 -36 27 -107 45 -193 50 -3 0 -6 18 -6 40 0 41 -7 56 -21 47 -5 -3 -8
-201 -8 -440 0 -239 -3 -433 -6 -431 -4 2 -13 -4 -20 -14 -13 -15 -12 -16 3
-4 22 17 31 1 18 -32 -5 -14 -6 -26 -2 -26 10 0 8 -192 -2 -208 -4 -7 -3 -12
2 -12 12 0 10 -43 -3 -52 -7 -5 -7 -8 0 -8 13 0 12 -117 0 -129 -11 -10 -36
-17 -125 -31 -30 -4 -67 -13 -81 -18 -36 -14 -82 -18 -98 -8 -10 6 -12 5 -7
-2 4 -7 4 -12 -1 -13 -4 0 -15 -2 -23 -4 -8 -2 -33 -7 -55 -12 -22 -5 -49 -9
-60 -8 -11 0 -22 -3 -25 -7 -3 -3 -29 -10 -58 -16 -45 -8 -52 -7 -53 7 0 12
-2 12 -8 -3 -4 -11 -15 -20 -23 -22 -9 -1 -40 -7 -70 -13 -38 -9 -54 -9 -56
-1 -3 7 -8 5 -16 -4 -15 -21 -77 -31 -87 -14 -6 10 -9 8 -9 -5 0 -11 -5 -17
-12 -14 -7 2 -20 1 -28 -3 -8 -5 -31 -10 -50 -14 -19 -3 -59 -10 -88 -17 -81
-17 -86 -17 -100 -6 -7 6 -12 6 -11 1 4 -21 -2 -26 -18 -13 -11 10 -14 10 -9
2 4 -8 2 -13 -6 -14 -7 0 -20 -2 -28 -4 -105 -24 -150 -31 -150 -24 0 5 -5 9
-11 9 -5 0 -8 -4 -5 -9 3 -5 0 -11 -8 -14 -11 -5 -14 7 -15 54 0 33 4 57 9 54
5 -3 12 -1 15 5 4 6 1 9 -6 8 -8 -2 -13 9 -14 30 -1 18 -5 35 -8 38 -3 3 -5
-38 -5 -91 0 -53 -2 -98 -4 -100 -3 -3 -144 -32 -183 -38 -11 -1 -25 -6 -31
-9 -8 -5 -11 11 -11 52 0 34 4 57 10 53 5 -3 4 4 -2 14 -6 11 -7 23 -4 27 3 3
1 6 -6 6 -9 0 -12 -18 -11 -62 1 -35 2 -70 1 -79 -1 -13 -22 -21 -93 -34 -51
-9 -103 -19 -115 -21 -18 -3 -21 0 -19 21 2 13 -1 22 -6 19 -5 -3 -8 -11 -7
-17 4 -30 -4 -39 -11 -12 -7 28 -8 28 -9 5 -3 -42 -23 -58 -81 -64 -46 -5 -52
-4 -39 6 21 18 30 45 14 45 -7 0 -11 -6 -8 -14 3 -7 1 -13 -5 -13 -5 0 -12 9
-15 20 -4 16 1 21 29 26 46 8 44 23 -2 17 -25 -3 -34 -1 -30 6 4 6 18 11 32
11 13 0 24 4 24 9 0 5 -13 7 -30 6 -29 -2 -30 -1 -30 41 0 32 4 44 15 45 8 1
20 3 25 4 6 1 18 3 28 4 15 2 14 3 -3 10 -11 5 -28 5 -37 0 -10 -5 -19 -5 -22
0 -3 5 10 12 29 15 19 4 35 11 35 17 0 6 -4 7 -10 4 -5 -3 -10 -2 -10 3 0 5
-7 9 -15 9 -8 0 -12 -4 -9 -9 3 -4 -4 -8 -15 -8 -10 0 -22 6 -24 13 -4 9 -6 9
-6 0 -1 -7 -8 -10 -18 -6 -11 5 -14 3 -8 -6 4 -8 2 -17 -6 -23 -11 -8 -10 -9
4 -4 9 3 17 1 18 -4 0 -6 2 -32 2 -59 2 -42 -1 -51 -18 -57 -18 -5 -18 -7 -2
-11 16 -4 22 -17 17 -38 -2 -5 -2 -24 -1 -40 l1 -30 -65 -2 c-55 -1 -64 1 -54
13 6 8 9 14 5 14 -3 0 -1 12 5 28 8 20 7 24 -1 16 -6 -6 -12 -21 -13 -33 -1
-11 -4 -21 -8 -21 -3 0 -30 48 -59 108 -54 111 -64 124 -87 115 -30 -12 -10
14 32 40 25 16 43 33 39 38 -9 16 -21 10 -69 -31 -27 -23 -57 -40 -71 -40 -34
0 -30 12 16 40 37 23 46 40 24 47 -5 1 -29 -15 -54 -37 -33 -30 -53 -40 -80
-41 -61 -2 -112 -7 -117 -13 -3 -2 -14 4 -26 15 -11 10 -27 19 -34 19 -8 0
-11 5 -8 10 3 6 23 10 43 10 28 0 33 3 22 10 -10 6 -11 10 -2 10 18 0 15 35
-5 53 -28 24 -76 27 -67 3 3 -8 0 -17 -7 -22 -7 -4 -10 -3 -6 3 3 5 0 10 -7
10 -8 0 -12 -6 -9 -14 3 -7 -1 -13 -10 -13 -8 0 -17 11 -19 24 -5 26 7 46 29
46 7 0 13 5 13 11 0 5 6 7 13 3 9 -5 9 -4 1 5 -8 9 -17 8 -39 -3 -30 -16 -42
-15 -31 3 4 6 12 9 19 7 7 -1 9 -1 5 1 -5 3 -8 9 -8 15 0 8 18 6 59 -10 10 -4
12 -1 6 8 -6 10 -4 12 9 7 10 -4 15 -3 11 3 -3 5 -19 7 -35 3 -21 -4 -30 -2
-30 7 0 8 -3 10 -7 7 -3 -4 -15 0 -25 10 -17 15 -18 15 -16 -10 1 -14 6 -23
10 -21 4 3 8 0 8 -5 0 -6 -11 -11 -25 -11 -16 0 -25 -6 -25 -15 0 -8 5 -15 11
-15 5 0 7 5 4 10 -3 6 -1 10 4 10 19 0 12 -22 -15 -42 -20 -16 -23 -23 -12
-29 14 -9 14 -9 -19 -13 -13 -2 -23 1 -23 6 0 5 -8 4 -19 -1 -17 -9 -18 -5
-18 54 0 36 3 63 6 60 4 -2 13 0 21 6 12 7 10 9 -7 9 -16 0 -21 6 -21 23 1 12
6 28 12 36 8 11 8 13 -1 7 -21 -12 -15 5 9 25 11 11 18 19 13 19 -4 0 -2 7 5
15 10 12 10 15 -4 15 -9 0 -16 -6 -16 -14 0 -8 -4 -17 -8 -20 -5 -3 -7 23 -6
57 3 69 -4 107 -15 88 -4 -6 -7 -63 -6 -127 1 -93 -2 -114 -13 -109 -7 3 -16
5 -18 5 -3 0 -2 5 1 10 3 6 1 10 -5 10 -7 0 -9 -7 -6 -16 3 -9 6 -18 6 -20 0
-2 10 -4 23 -5 12 0 16 -3 9 -6 -6 -2 -9 -10 -5 -16 4 -6 8 -21 9 -33 2 -21 1
-22 -30 -9 -30 13 -32 12 -33 -8 -1 -11 3 -28 10 -37 11 -13 10 -13 -5 -1 -16
12 -18 11 -18 -3 0 -9 5 -16 12 -16 7 0 23 -12 35 -27 13 -14 23 -23 23 -18 0
4 8 1 17 -6 11 -10 14 -10 9 -1 -10 17 19 15 38 -3 18 -19 27 -19 20 -2 -8 21
53 20 66 -1 9 -16 9 -16 10 1 0 21 9 21 34 2 16 -12 12 -19 -6 -14 -2 0 -15
-4 -30 -10 -21 -8 -28 -7 -28 2 0 8 -3 9 -8 1 -4 -6 -17 -10 -29 -9 -13 1 -23
-3 -23 -8 0 -6 -10 -2 -22 9 -21 18 -22 18 -8 1 13 -17 12 -19 -10 -17 -14 1
-27 1 -30 0 -3 -1 -18 -4 -35 -6 -44 -8 -52 -18 -59 -86 -7 -69 -6 -65 -26
-68 -38 -6 -71 0 -64 12 5 8 2 9 -11 4 -11 -4 -25 0 -37 11 -13 11 -18 13 -16
4 2 -8 -14 -18 -39 -26 -24 -7 -43 -12 -44 -11 0 0 -3 12 -5 25 -7 37 -14 38
-14 3 0 -25 -4 -32 -19 -32 -15 0 -19 6 -17 25 3 23 0 24 -30 21 -38 -5 -44 5
-44 68 0 31 -6 47 -22 61 l-22 19 29 9 c41 13 54 25 71 66 11 26 17 32 23 22
5 -7 13 -11 19 -7 6 3 12 1 14 -5 6 -17 59 13 111 63 46 44 94 85 136 117 l25
18 -29 27 c-33 31 -61 34 -70 7 -6 -20 -51 -54 -70 -54 -5 0 -42 3 -81 7 -66
6 -72 5 -77 -13 -2 -11 0 -24 6 -30 8 -8 8 -11 -1 -11 -6 0 -14 11 -18 25 -8
32 -49 65 -73 58 -10 -2 -26 -20 -35 -40 -18 -38 -41 -40 -41 -2 1 13 -4 27
-10 32 -6 5 -4 11 8 18 23 14 22 49 -2 49 -10 0 -21 7 -25 15 -9 26 -43 17
-55 -14 -12 -27 -47 -51 -75 -51 -7 0 -25 -18 -40 -40 -15 -23 -31 -38 -36
-35 -6 4 -10 -1 -10 -9 0 -9 -8 -21 -19 -27 -11 -7 -16 -19 -13 -31 3 -12 -1
-18 -12 -18 -9 0 -16 -4 -16 -10 0 -5 6 -7 14 -4 8 3 24 0 36 -6 19 -10 29 -7
76 24 30 20 54 42 54 49 1 15 47 50 59 43 9 -6 -9 -86 -20 -86 -4 0 -21 -11
-37 -25 -25 -21 -30 -32 -28 -68 1 -23 5 -48 10 -55 8 -14 -7 -32 -54 -65 -29
-20 -37 -21 -43 -4 -2 6 -3 4 -2 -5 2 -10 -1 -18 -7 -18 -5 0 -7 -4 -3 -9 3
-5 1 -12 -5 -16 -6 -4 -10 12 -10 44 0 27 5 53 10 56 6 3 10 -2 11 -12 0 -14
2 -15 6 -3 3 8 12 19 19 23 22 13 16 26 -18 42 -18 8 -26 13 -17 11 12 -3 15
1 12 15 -3 12 0 19 8 19 25 0 -5 19 -40 25 -42 7 -51 12 -51 30 0 7 -5 15 -12
17 -22 8 -16 53 13 83 54 58 59 114 15 190 -13 22 -22 50 -20 63 2 12 0 22 -5
22 -6 0 -8 -9 -6 -20 l4 -21 -26 21 c-14 11 -36 20 -49 20 -22 0 -29 10 -25
33 1 5 -3 6 -9 2 -6 -3 -8 -11 -5 -16 4 -5 1 -9 -4 -9 -6 0 -19 -8 -30 -19
-18 -18 -19 -18 -50 1 -35 22 -38 39 -16 92 l15 36 -27 2 c-16 1 -38 1 -50 1
-17 0 -23 6 -24 21 0 15 -4 12 -13 -13 -9 -26 -21 -38 -50 -47 -29 -10 -38
-11 -40 -1 -2 7 -7 21 -12 32 -13 35 -15 113 -3 121 8 4 10 -7 8 -40 -2 -25
-1 -46 3 -46 5 0 8 18 8 41 0 22 5 49 10 60 9 16 7 21 -15 31 -18 8 -22 14
-15 24 6 6 19 10 30 7 10 -3 26 -1 36 5 11 6 27 6 45 -1 26 -10 28 -15 24 -47
-14 -102 -15 -95 18 -97 17 -2 42 5 56 14 17 11 26 13 29 5 14 -44 44 40 45
126 0 28 4 52 8 52 12 0 17 38 6 49 -7 7 -12 36 -14 65 -2 59 -19 104 -34 89
-5 -5 -16 -35 -24 -67 -18 -70 -33 -99 -46 -90 -6 3 -6 11 -2 17 5 7 8 49 7
95 -1 45 2 82 7 82 5 0 9 5 9 10 0 6 -7 10 -15 10 -12 0 -15 -17 -15 -90 0
-80 -2 -90 -18 -90 -23 0 -42 -19 -42 -43 0 -18 -1 -18 -22 -3 -13 9 -40 28
-61 42 -34 22 -37 27 -25 42 7 8 8 13 2 9 -7 -4 -14 5 -17 23 -7 32 -43 74
-56 66 -5 -3 -16 3 -26 14 -10 11 -26 20 -35 20 -10 0 -20 6 -23 14 -4 9 0 12
12 9 13 -3 20 2 24 18 8 28 -10 54 -28 39 -6 -5 -15 -7 -18 -3 -4 3 -7 1 -7
-5 0 -7 -7 -12 -15 -12 -8 0 -17 -11 -21 -24 -3 -13 -13 -23 -22 -23 -37 0
-42 -4 -42 -29 0 -19 4 -25 15 -21 7 3 24 -3 37 -13 13 -11 18 -19 11 -20 -7
0 -10 -7 -6 -16 4 -12 2 -15 -8 -12 -8 3 -13 11 -12 17 2 6 -3 11 -11 11 -8 0
-17 6 -19 13 -4 10 -6 10 -6 0 -1 -18 -26 -16 -42 4 -12 15 -12 16 3 11 10 -4
19 -1 22 8 3 8 2 13 -3 9 -14 -8 -38 4 -38 20 0 8 5 16 11 17 6 0 16 2 21 3 6
2 16 3 23 4 6 0 12 6 12 11 0 18 -99 50 -163 53 -27 1 -37 5 -35 16 2 8 12 15
23 16 47 4 95 17 95 26 0 12 -34 25 -85 33 -21 4 -44 11 -51 17 -8 7 -14 7
-19 -1 -12 -19 -27 2 -21 30 3 15 2 31 -1 34 -12 12 -12 36 0 30 8 -5 7 -2 0
7 -16 16 -17 33 -1 23 6 -4 8 -3 5 4 -9 14 1 39 16 39 7 0 20 4 30 8 13 5 16
3 12 -8 -4 -8 1 -17 11 -21 15 -6 15 -4 3 11 -12 15 -12 16 4 10 9 -3 17 -2
17 3 0 6 -4 10 -9 10 -5 0 -8 8 -6 18 2 9 4 17 6 17 1 0 3 9 4 21 1 12 -4 21
-11 21 -7 0 -11 -4 -8 -9 3 -4 0 -8 -7 -8 -8 0 -7 -5 2 -17 17 -20 16 -25 -8
-34 -26 -11 -43 -10 -43 1 0 6 6 10 14 10 8 0 18 5 22 12 4 6 3 8 -2 5 -20
-12 -35 9 -28 37 5 23 11 27 33 24 21 -3 26 0 27 19 1 13 -2 23 -7 23 -5 0 -8
-6 -6 -12 1 -8 -10 -14 -25 -16 -32 -4 -36 5 -11 23 15 12 14 12 -10 8 -23 -5
-29 -1 -34 16 -3 11 -8 21 -12 22 -36 5 -59 3 -54 -4 2 -4 -1 -14 -7 -22 -6
-8 -9 -19 -5 -25 8 -14 -8 -13 -22 1 -7 7 -9 25 -6 40 3 18 1 29 -5 29 -6 0
-10 -8 -10 -17 1 -34 -13 -87 -25 -95 -7 -4 -17 -6 -24 -3 -7 2 -15 -1 -19 -7
-5 -7 -2 -8 6 -3 9 6 11 4 5 -4 -6 -10 -3 -11 15 -1 19 10 22 10 17 -2 -4 -11
1 -14 19 -10 14 2 24 0 24 -7 0 -7 5 -9 10 -6 6 3 10 -1 10 -10 0 -9 -4 -13
-10 -10 -5 3 -10 -3 -10 -14 0 -11 -8 -25 -17 -30 -10 -6 -12 -11 -5 -11 6 0
15 0 19 0 4 0 8 7 9 16 1 9 6 19 9 22 4 4 4 -33 1 -83 -8 -107 -9 -116 -21
-134 -7 -12 -10 -11 -16 5 -6 16 -8 14 -10 -11 -2 -36 -6 -88 -8 -96 -2 -12
-28 -18 -50 -12 -15 4 -21 13 -21 35 0 17 4 27 10 23 6 -3 18 1 27 11 16 15
15 18 -10 36 -30 22 -34 54 -16 108 7 19 8 35 2 39 -5 3 -9 29 -9 58 1 45 4
52 24 56 12 2 22 1 22 -3 0 -4 11 -15 25 -24 24 -16 24 -15 16 6 -5 13 -12 23
-17 23 -5 0 -13 3 -19 6 -5 4 -17 5 -26 4 -11 -2 -16 3 -14 14 1 9 -2 27 -7
41 -5 13 -6 22 -2 18 3 -4 13 0 21 8 12 12 18 12 32 2 14 -12 15 -11 2 4 -7
10 -16 16 -20 14 -3 -2 -11 2 -18 9 -17 19 14 30 36 13 10 -8 9 -5 -3 10 -11
12 -24 22 -31 22 -6 0 -12 7 -12 15 0 14 10 19 30 16 5 -1 6 3 2 8 -3 6 -13 7
-22 4 -11 -4 -14 -2 -11 8 3 8 11 13 17 12 17 -4 13 14 -5 21 -20 8 -24 8 -25
-1z m134 -213 c-3 -12 -11 -16 -24 -13 -15 4 -19 13 -17 39 l2 34 22 -21 c13
-12 20 -28 17 -39z m87 -104 c0 -3 -4 -8 -10 -11 -5 -3 -10 -1 -10 4 0 6 5 11
10 11 6 0 10 -2 10 -4z m-230 -278 c0 -21 -4 -38 -10 -38 -5 0 -10 -7 -10 -15
0 -8 5 -15 12 -15 9 0 9 -3 0 -12 -17 -17 -23 -6 -26 43 -2 24 -5 49 -6 54 -4
17 -1 21 20 21 16 0 20 -7 20 -38z m280 32 c0 -5 -4 -10 -10 -10 -5 0 -10 5
-10 10 0 6 5 10 10 10 6 0 10 -4 10 -10z m110 -110 c-6 -11 -12 -20 -14 -20
-3 0 -1 23 3 38 1 1 6 2 11 2 7 0 7 -6 0 -20z m242 -54 c7 4 8 2 4 -5 -4 -6
-13 -8 -19 -5 -9 5 -9 4 -1 -5 9 -9 7 -22 -7 -51 -20 -40 -39 -60 -39 -39 0 6
-8 18 -17 26 -10 8 -12 12 -6 8 8 -4 18 4 24 19 7 14 17 22 23 19 6 -4 5 0 -2
9 -11 14 -10 18 5 27 11 6 19 6 21 0 2 -5 9 -6 14 -3z m-152 -27 c0 -11 -3
-11 -24 -3 -23 9 -20 23 4 17 11 -3 20 -9 20 -14z m-306 -5 c12 -5 13 -9 3
-19 -9 -9 -14 -10 -19 -1 -16 23 -10 30 16 20z m107 -16 c11 -21 11 -22 -4 -9
-10 7 -17 17 -17 22 0 15 9 10 21 -13z m42 -9 c-5 -19 -7 -19 -15 -5 -10 18
-2 39 12 31 4 -3 6 -15 3 -26z m-517 -45 c-4 -13 -3 -24 2 -24 4 0 8 -16 9
-35 1 -41 -1 -42 -29 -15 -12 11 -27 20 -33 20 -13 0 -14 38 -2 58 5 7 3 12
-5 12 -9 0 -9 3 2 10 11 7 11 10 2 10 -7 0 -10 4 -7 10 4 6 17 4 36 -6 25 -13
30 -20 25 -40z m328 20 c4 -9 4 -19 2 -21 -8 -8 -26 8 -26 23 0 19 16 18 24
-2z m58 -9 c-2 -14 -8 -23 -12 -20 -7 4 -7 23 -1 43 1 1 5 2 10 2 4 0 6 -11 3
-25z m31 -57 c-2 -5 -9 -8 -15 -8 -6 0 -8 16 -4 43 7 57 7 58 16 12 4 -22 6
-43 3 -47z m57 15 c0 -7 -4 -13 -10 -13 -5 0 -13 -1 -17 -2 -5 -2 -11 17 -14
41 l-6 44 24 -29 c12 -16 23 -35 23 -41z m57 45 c-3 -8 -6 -5 -6 6 -1 11 2 17
5 13 3 -3 4 -12 1 -19z m133 13 c0 -6 -5 -13 -10 -16 -8 -5 -7 -11 0 -20 7 -8
9 -30 6 -52 -3 -21 -5 -43 -6 -49 0 -7 -9 -14 -21 -17 -38 -10 -17 -40 55 -77
48 -25 78 -35 99 -32 29 5 29 4 24 -34 -7 -56 -39 -133 -57 -138 -8 -3 -42 -7
-74 -11 -32 -3 -63 -8 -69 -12 -6 -4 -8 2 -5 15 4 12 3 20 -2 17 -4 -2 -6 17
-4 43 3 43 2 44 -5 12 -5 -22 -9 -28 -11 -15 -1 11 -3 29 -5 40 -17 107 -17
115 -6 115 6 0 11 -11 11 -25 0 -14 3 -25 8 -25 4 0 6 19 3 43 -2 23 -6 36 -8
30 -3 -7 -9 -13 -14 -13 -4 0 3 16 16 36 14 20 25 44 25 53 0 10 6 23 13 30
10 10 9 15 -4 24 -13 10 -14 17 -3 42 7 17 10 33 7 38 -2 4 5 7 16 7 12 0 21
-4 21 -9z m-993 -16 c0 -8 -5 -11 -11 -8 -7 5 -7 2 0 -8 10 -11 4 -19 -27 -41
l-39 -28 0 33 c0 28 6 36 33 50 41 20 44 20 44 2z m255 -12 c7 -25 -2 -44 -15
-37 -7 3 -4 -1 6 -10 23 -18 14 -58 -11 -54 -9 1 -23 -1 -29 -5 -15 -10 -15
-9 -17 66 l-2 57 32 0 c22 0 33 -5 36 -17z m120 5 c48 -28 118 -103 124 -135
5 -27 3 -33 -10 -33 -19 0 -38 40 -25 55 4 6 3 17 -2 25 -8 12 -9 11 -7 -5 2
-12 -2 -19 -9 -17 -7 1 -13 -2 -13 -7 0 -5 6 -11 13 -14 9 -4 9 -7 -1 -18 -11
-12 -14 -12 -22 1 -5 8 -6 18 -3 24 3 5 1 6 -5 2 -6 -4 -9 -12 -6 -20 3 -9 -3
-11 -26 -8 -19 3 -30 10 -31 21 -3 45 -1 82 4 87 10 10 59 -45 51 -57 -4 -7
-1 -10 7 -7 8 3 12 12 10 19 -2 8 -4 19 -5 26 -1 7 -6 16 -11 20 -4 4 -5 2 -1
-4 10 -17 0 -16 -29 3 -14 9 -22 21 -18 27 4 6 0 8 -10 4 -11 -4 -14 -2 -10 9
6 17 8 17 35 2z m488 -12 c0 -3 -4 -8 -10 -11 -5 -3 -10 -1 -10 4 0 6 5 11 10
11 6 0 10 -2 10 -4z m53 -11 c4 -8 2 -17 -3 -20 -6 -4 -10 3 -10 14 0 25 6 27
13 6z m-223 -25 c9 -16 8 -20 -5 -20 -8 0 -15 9 -15 20 0 11 2 20 5 20 2 0 9
-9 15 -20z m-778 -12 c7 -43 -1 -56 -34 -52 -17 2 -28 1 -25 -2 4 -4 17 -7 29
-8 20 -1 23 -7 24 -43 l1 -42 -28 20 c-39 28 -48 47 -38 82 8 27 43 67 59 67
4 0 9 -10 12 -22z m402 -40 c26 -27 28 -33 14 -36 -21 -4 -66 38 -60 56 6 18
12 15 46 -20z m752 -35 c-10 -10 -19 5 -10 18 6 11 8 11 12 0 2 -7 1 -15 -2
-18z m-727 -16 c-2 -1 -11 -8 -20 -15 -14 -10 -18 -10 -23 3 -4 11 1 15 21 15
14 0 24 -1 22 -3z m-134 -17 c3 -5 -1 -10 -10 -10 -9 0 -13 5 -10 10 3 6 8 10
10 10 2 0 7 -4 10 -10z m242 -22 c0 -32 -10 -34 -52 -12 -18 9 -25 10 -17 3
14 -15 16 -33 3 -24 -5 3 -13 1 -16 -5 -4 -6 -3 -9 2 -8 4 2 9 -1 11 -7 2 -5
-3 -11 -11 -13 -11 -2 -16 9 -19 37 -2 22 -2 44 0 49 1 4 24 8 51 8 45 -1 48
-2 48 -28z m-109 -4 c1 -18 -2 -23 -11 -18 -8 5 -7 2 2 -9 12 -15 11 -17 -10
-18 -23 -2 -23 -2 -2 -6 14 -3 21 -11 20 -23 -2 -26 -55 -33 -68 -9 -13 25
-12 29 9 29 16 1 16 1 0 10 -21 13 -16 44 8 48 10 2 23 8 29 13 15 15 21 11
23 -17z m152 0 c0 -8 -7 -14 -15 -14 -8 0 -15 9 -15 20 0 13 5 18 15 14 8 -4
15 -12 15 -20z m326 17 c-3 -5 -15 -7 -26 -4 -28 7 -25 13 6 13 14 0 23 -4 20
-9z m-166 -23 c-11 -10 -24 -18 -30 -18 -5 0 -10 -4 -10 -10 0 -5 -4 -10 -10
-10 -5 0 -7 7 -5 15 3 8 7 21 9 29 3 8 17 13 35 12 29 -1 29 -1 11 -18z m-443
-8 c-1 -20 -8 -25 -20 -14 -7 8 3 34 13 34 5 0 8 -9 7 -20z m318 -25 c-3 -11
-7 -31 -9 -45 -3 -14 -5 -25 -6 -25 -1 0 -4 -11 -6 -25 -9 -60 -18 -80 -36
-80 -6 0 -7 10 -3 28 4 15 9 41 12 57 4 25 17 58 41 109 3 5 0 6 -7 2 -7 -5
-9 -1 -4 9 8 23 24 -3 18 -30z m206 38 c0 -5 2 -16 5 -25 2 -10 5 -25 7 -33 2
-8 6 -18 10 -21 17 -17 5 -33 -23 -32 -25 1 -30 5 -30 25 0 14 4 21 10 18 6
-3 10 -1 10 4 0 6 -4 11 -10 11 -5 0 -10 14 -10 30 0 20 5 30 15 30 8 0 15 -3
16 -7z m79 -13 c0 -4 -9 -10 -20 -13 -15 -4 -20 0 -20 13 0 13 5 17 20 13 11
-3 20 -9 20 -13z m30 0 c0 -5 -5 -10 -11 -10 -5 0 -7 5 -4 10 3 6 8 10 11 10
2 0 4 -4 4 -10z m-160 -57 c0 -18 -5 -33 -11 -33 -7 0 -9 13 -5 38 3 20 3 31
0 24 -3 -6 -9 -10 -14 -7 -4 2 -7 -7 -7 -21 0 -33 -7 -38 -32 -25 -26 14 -18
36 20 51 16 7 29 18 29 24 1 27 20 -22 20 -51z m-473 21 c-3 -3 -12 -4 -19 -1
-8 3 -5 6 6 6 11 1 17 -2 13 -5z m587 -22 c2 -4 1 -14 -3 -21 -6 -9 -10 -7
-14 8 -5 20 7 29 17 13z m30 -44 c-9 -14 -23 2 -17 18 4 12 8 13 14 3 4 -7 5
-17 3 -21z m-366 -4 c-1 -13 -5 -24 -9 -24 -4 0 -6 -8 -5 -17 0 -11 -5 -17
-13 -15 -12 3 -12 0 -1 -12 10 -13 10 -16 0 -16 -9 0 -9 -4 -2 -13 13 -16 -1
-42 -18 -32 -6 4 -9 17 -6 30 4 17 2 23 -9 21 -17 -3 -33 -16 -18 -16 6 0 13
-9 16 -21 5 -18 1 -20 -31 -17 -42 4 -51 19 -20 33 36 17 33 34 -11 53 -53 22
-58 56 -9 60 18 2 33 4 34 5 2 2 26 3 53 3 47 1 50 0 49 -22z m170 -12 c2 -7
-7 -12 -23 -12 -22 0 -24 2 -13 15 15 16 30 15 36 -3z m55 -8 c-3 -8 -9 -14
-13 -14 -4 0 -13 6 -19 14 -9 11 -7 14 13 14 17 0 23 -5 19 -14z m91 -10 c4
-11 -3 -13 -32 -8 -42 7 -46 9 -38 22 8 13 64 2 70 -14z m65 -1 c-6 -7 -18
-13 -26 -13 -12 0 -13 3 -4 13 6 8 17 14 26 14 11 0 12 -4 4 -14z m-233 -29
c-3 -8 -9 -20 -12 -28 -4 -10 1 -12 20 -9 16 3 26 12 26 22 0 14 -2 14 -10 1
-8 -12 -10 -11 -10 8 0 24 10 28 28 10 9 -9 12 -9 12 0 0 6 6 9 13 6 21 -8 13
-79 -12 -105 -14 -15 -21 -18 -21 -9 0 11 -3 11 -12 2 -16 -16 -49 13 -41 36
4 14 3 15 -6 2 -9 -13 -11 -12 -16 2 -8 21 -2 71 9 80 15 10 38 -3 32 -18z
m264 18 c0 -5 -7 -9 -15 -9 -8 0 -12 4 -9 9 3 4 9 8 15 8 5 0 9 -4 9 -8z
m-132 -34 c-22 -32 -38 -34 -36 -4 2 20 8 26 26 26 23 0 24 -1 10 -22z m11
-37 c-32 -29 -49 -38 -49 -26 0 14 66 72 74 65 4 -5 -7 -22 -25 -39z m115 43
c11 -4 16 -18 15 -43 -1 -82 -26 -86 -52 -9 -11 35 -12 48 -4 52 17 7 24 7 41
0z m-1251 -24 c19 -17 -11 -17 -43 1 l-35 18 35 -6 c19 -3 39 -9 43 -13z m852
-65 c-37 -74 -44 -76 -27 -5 9 38 20 60 31 63 25 5 25 2 -4 -58z m-595 38 c8
-13 10 -14 7 -2 -4 12 1 14 27 11 17 -3 34 -10 38 -16 6 -8 8 -7 8 1 0 9 7 10
24 3 13 -5 43 -12 67 -15 62 -9 100 -34 89 -56 -10 -18 -25 -16 -108 10 -18 5
-35 10 -37 10 -4 0 -103 21 -127 27 -5 1 -17 2 -28 3 -10 0 -24 10 -30 21 -10
18 -8 20 24 20 22 0 39 -6 46 -17z m905 -25 c-1 -18 -8 -24 -36 -26 l-34 -4
30 30 c33 34 42 34 40 0z m-210 -9 c-10 -15 -25 -10 -19 6 4 8 10 12 15 9 5
-3 7 -10 4 -15z m253 -5 c1 -15 7 -33 13 -40 6 -8 7 -14 2 -14 -11 0 -33 44
-33 65 0 26 16 16 18 -11z m-948 -10 c0 -2 -7 -4 -15 -4 -8 0 -15 4 -15 10 0
5 7 7 15 4 8 -4 15 -8 15 -10z m51 -8 c13 -3 38 -8 54 -12 44 -8 59 -14 53
-19 -8 -8 -148 27 -148 37 0 5 4 7 8 4 5 -3 19 -7 33 -10z m483 8 c29 -11 0
-44 -39 -44 -35 0 -40 5 -29 34 6 16 39 21 68 10z m186 -14 c-12 -8 -10 -10 9
-10 24 0 24 0 5 -19 -20 -19 -31 -21 -51 -8 -19 12 -16 21 10 33 28 14 47 17
27 4z m188 -15 c4 -4 1 -5 -5 -1 -7 4 -13 2 -13 -4 0 -7 -6 -8 -19 -1 -10 6
-22 7 -26 3 -5 -4 -5 -2 -1 5 7 13 51 11 64 -2z m-93 -5 c-3 -5 -11 -10 -16
-10 -6 0 -7 5 -4 10 3 6 11 10 16 10 6 0 7 -4 4 -10z m-599 -10 c9 0 13 -4 10
-9 -7 -11 -44 -3 -53 12 -4 7 0 8 11 4 10 -4 24 -7 32 -7z m-28 -24 c25 -8 25
-5 6 -106 -4 -19 -7 -45 -7 -57 -1 -13 -4 -23 -9 -23 -4 0 -4 -7 -1 -17 4 -9
2 -14 -3 -10 -6 3 -8 -8 -6 -28 2 -18 -1 -36 -7 -39 -6 -4 -11 -1 -12 6 -5
113 -2 285 6 284 6 -1 21 -6 33 -10z m342 2 c0 -4 -9 -8 -20 -8 -11 0 -20 4
-20 9 0 6 9 9 20 8 11 -1 20 -5 20 -9z m-13 -33 c4 -4 2 -5 -4 -1 -8 4 -13 1
-13 -8 0 -9 -7 -16 -15 -16 -15 0 -21 21 -9 32 7 8 32 4 41 -7z m-157 -106 c0
8 3 11 7 7 12 -11 12 -39 2 -59 -11 -19 -11 -19 -24 0 -8 11 -11 30 -8 42 4
17 8 19 14 9 7 -11 9 -10 9 1z m97 -2 c-3 -8 -1 -20 3 -28 5 -7 5 -18 -1 -25
-6 -8 -6 -14 0 -18 5 -3 7 -18 5 -34 -3 -15 -6 -36 -8 -46 -1 -11 -8 -22 -14
-24 -9 -3 -12 21 -11 85 1 48 3 91 6 96 8 13 25 8 20 -6z m-208 -63 c-6 -8 -7
-14 -2 -14 6 0 8 -11 5 -25 -6 -36 -21 -31 -18 8 1 17 -2 42 -6 54 -5 16 -3
25 10 32 14 8 18 5 20 -15 2 -14 -2 -32 -9 -40z m51 24 c0 -19 2 -20 10 -8 9
13 10 13 10 0 0 -9 -6 -22 -12 -29 -11 -10 -9 -15 6 -27 18 -12 15 -19 -6 -15
-5 0 -8 -3 -8 -9 0 -5 -9 -10 -19 -10 -14 0 -18 5 -14 20 3 11 10 17 17 13 7
-4 7 -1 -1 8 -10 12 -10 18 0 29 7 7 7 10 1 7 -7 -4 -9 2 -6 18 6 31 22 33 22
3z m36 -27 c-4 -5 0 -11 6 -14 9 -3 7 -7 -5 -12 -24 -10 -33 1 -17 20 14 16
25 21 16 6z m75 2 c6 -35 4 -92 -2 -86 -17 18 -37 66 -32 79 5 15 32 20 34 7z
m1999 -12 c0 -17 -18 -21 -24 -6 -3 9 0 15 9 15 8 0 15 -4 15 -9z m-1867 -13
c28 -14 29 -42 1 -64 -7 -6 -11 -14 -7 -17 3 -4 1 -7 -5 -7 -7 0 -13 3 -13 8
-1 4 -3 20 -5 36 -2 16 -5 35 -8 43 -7 16 2 17 37 1z m1252 2 c-3 -5 -12 -10
-20 -10 -15 0 -28 -27 -19 -41 3 -5 1 -9 -4 -9 -5 0 -12 9 -15 20 -4 15 2 24
21 35 32 17 46 19 37 5z m-1685 -20 c0 -5 -7 -10 -15 -10 -8 0 -15 5 -15 10 0
6 7 10 15 10 8 0 15 -4 15 -10z m272 -36 c11 -21 13 -36 7 -39 -5 -4 -8 -1 -7
6 2 7 -10 15 -26 18 -17 3 -28 11 -27 16 9 26 13 32 24 32 7 0 20 -15 29 -33z
m-41 -29 c29 -6 37 -15 14 -15 -10 0 -15 -3 -11 -7 4 -4 23 -6 42 -4 28 2 34
-1 34 -17 0 -25 -13 -29 -70 -22 -33 4 -46 10 -48 23 -2 10 4 17 15 18 17 1
17 2 1 6 -10 2 -18 11 -18 19 0 8 4 12 10 9 5 -3 20 -8 31 -10z m-121 -41 c0
-19 -4 -34 -10 -34 -5 0 -13 0 -17 0 -8 1 -5 59 4 73 10 16 23 -6 23 -39z
m275 36 c3 -5 1 -10 -4 -10 -6 0 -11 5 -11 10 0 6 2 10 4 10 3 0 8 -4 11 -10z
m2490 -50 c3 -5 -1 -10 -10 -10 -9 0 -13 5 -10 10 3 6 8 10 10 10 2 0 7 -4 10
-10z m-2905 -29 c0 -6 -4 -13 -10 -16 -5 -3 -10 1 -10 9 0 9 5 16 10 16 6 0
10 -4 10 -9z m-54 -12 c3 -6 0 -15 -7 -20 -14 -8 -32 9 -23 23 7 11 22 10 30
-3z m-471 -820 c-10 -19 -21 -26 -42 -25 -23 1 -28 5 -27 26 1 14 2 35 3 48
l1 23 39 -23 c38 -22 39 -23 26 -49z"/>
<path d="M2684 4636 c1 -8 5 -18 8 -22 4 -3 5 1 4 10 -1 8 -5 18 -8 22 -4 3
-5 -1 -4 -10z"/>
<path d="M1975 4881 c-3 -5 -1 -12 5 -16 5 -3 10 1 10 9 0 18 -6 21 -15 7z"/>
<path d="M2182 4724 c10 -10 20 -16 22 -13 3 3 -5 11 -17 18 -21 13 -21 12 -5
-5z"/>
<path d="M2167 4584 c-3 -3 -3 -12 0 -20 3 -8 0 -14 -7 -14 -6 0 -8 -5 -5 -10
9 -14 21 -5 28 20 5 20 -5 35 -16 24z"/>
<path d="M2475 5740 c-17 -8 -17 -9 7 -7 15 1 24 5 22 9 -3 4 -6 8 -7 7 -1 0
-11 -4 -22 -9z"/>
<path d="M2236 5712 c5 -4 12 -11 15 -15 3 -5 9 -2 12 5 3 9 -3 14 -15 15 -11
1 -16 -1 -12 -5z"/>
<path d="M2467 5700 c-3 -11 -1 -20 5 -20 5 0 7 -4 3 -9 -3 -5 -1 -13 5 -16 6
-4 10 -3 9 2 -4 21 2 34 14 28 6 -4 4 0 -5 8 -10 8 -15 17 -11 20 3 4 2 7 -4
7 -6 0 -13 -9 -16 -20z"/>
<path d="M2375 5701 c-17 -7 -16 -9 11 -13 24 -3 31 -1 27 9 -6 15 -9 15 -38
4z"/>
<path d="M2127 5680 c-3 -11 -3 -20 -1 -20 2 0 8 9 14 20 6 11 7 20 2 20 -6 0
-12 -9 -15 -20z"/>
<path d="M2110 5619 c0 -6 4 -8 9 -4 6 3 14 -3 20 -12 10 -17 10 -16 11 2 0
14 -7 21 -20 22 -11 1 -20 -3 -20 -8z"/>
<path d="M2223 5616 c0 -8 6 -12 14 -9 7 3 13 9 13 14 0 5 -6 9 -13 9 -8 0
-14 -6 -14 -14z"/>
<path d="M2586 5608 c3 -4 11 -5 19 -1 21 7 19 12 -4 10 -11 0 -18 -5 -15 -9z"/>
<path d="M2650 5609 c0 -5 4 -8 9 -4 5 3 12 -3 14 -12 4 -17 5 -17 6 0 1 12 6
16 14 11 6 -4 9 -3 4 1 -12 13 -47 16 -47 4z"/>
<path d="M2733 5593 c0 -9 4 -10 13 -2 8 7 14 6 17 -3 4 -9 6 -7 6 4 1 10 -6
16 -17 15 -10 0 -19 -7 -19 -14z"/>
<path d="M2845 5599 c-4 -6 -5 -12 -2 -15 2 -3 7 2 10 11 7 17 1 20 -8 4z"/>
<path d="M2620 5596 c0 -2 8 -10 18 -17 15 -13 16 -12 3 4 -13 16 -21 21 -21
13z"/>
<path d="M2669 5538 c4 -27 6 -29 9 -10 2 12 8 22 13 22 6 0 7 5 4 10 -15 24
-31 9 -26 -22z"/>
<path d="M2740 5559 c0 -4 7 -9 15 -13 9 -3 15 0 15 8 0 7 -7 13 -15 13 -8 0
-15 -4 -15 -8z"/>
<path d="M2830 5560 c0 -5 5 -10 10 -10 6 0 10 5 10 10 0 6 -4 10 -10 10 -5 0
-10 -4 -10 -10z"/>
<path d="M2640 5540 c-9 -6 -10 -10 -3 -10 6 0 15 5 18 10 8 12 4 12 -15 0z"/>
<path d="M2847 5525 c5 -15 3 -17 -13 -11 -15 6 -16 5 -7 -5 9 -9 18 -8 38 5
15 10 23 21 19 24 -3 4 -9 1 -11 -6 -4 -10 -8 -10 -19 -1 -12 10 -13 9 -7 -6z"/>
<path d="M2762 5510 c0 -14 2 -19 5 -12 2 6 2 18 0 25 -3 6 -5 1 -5 -13z"/>
<path d="M2670 5482 c0 -12 3 -12 15 -2 8 7 15 13 15 15 0 1 -7 2 -15 2 -8 0
-15 -7 -15 -15z"/>
<path d="M2641 5474 c7 -8 6 -13 -3 -17 -7 -2 0 -4 16 -4 23 0 26 1 12 9 -9 5
-14 13 -12 17 3 4 -1 8 -9 8 -11 0 -12 -4 -4 -13z"/>
<path d="M2735 5470 c-3 -6 1 -7 9 -4 18 7 21 14 7 14 -6 0 -13 -4 -16 -10z"/>
<path d="M2353 5438 c3 -9 1 -19 -6 -22 -9 -3 -9 -5 0 -5 18 -1 23 13 11 29
-8 12 -9 12 -5 -2z"/>
<path d="M2563 5394 c-15 -16 -16 -24 -4 -24 8 0 24 30 19 35 -2 2 -9 -3 -15
-11z"/>
<path d="M2645 5390 c-5 -8 -4 -11 3 -6 13 8 44 -33 35 -47 -3 -6 -1 -7 5 -3
5 3 13 0 15 -6 3 -7 6 -8 6 -3 1 6 -12 26 -27 45 -22 25 -31 30 -37 20z"/>
<path d="M2576 5362 c-3 -5 1 -9 9 -9 8 0 12 4 9 9 -3 4 -7 8 -9 8 -2 0 -6 -4
-9 -8z"/>
<path d="M2623 5354 c-15 -16 -16 -24 -4 -24 8 0 24 30 19 35 -2 2 -9 -3 -15
-11z"/>
<path d="M2541 5351 c-8 -5 -9 -11 -3 -15 5 -3 12 1 16 9 6 17 6 18 -13 6z"/>
<path d="M2575 5320 c3 -5 8 -10 11 -10 2 0 4 5 4 10 0 6 -5 10 -11 10 -5 0
-7 -4 -4 -10z"/>
<path d="M2382 5290 c0 -14 2 -19 5 -12 2 6 2 18 0 25 -3 6 -5 1 -5 -13z"/>
<path d="M2690 5299 c0 -5 5 -7 10 -4 6 3 10 8 10 11 0 2 -4 4 -10 4 -5 0 -10
-5 -10 -11z"/>
<path d="M2667 5279 c7 -7 15 -10 18 -7 3 3 -2 9 -12 12 -14 6 -15 5 -6 -5z"/>
<path d="M1968 5238 c2 -10 7 -18 11 -18 4 0 7 8 7 18 0 10 -5 19 -12 19 -6 0
-9 -9 -6 -19z"/>
<path d="M1958 5208 c5 -5 16 -8 23 -6 8 3 3 7 -10 11 -17 4 -21 3 -13 -5z"/>
<path d="M1959 5174 c-9 -11 -9 -18 -2 -22 6 -4 13 -16 16 -27 4 -19 5 -19 6
2 0 12 7 24 14 26 9 4 9 6 -1 6 -7 1 -11 5 -7 10 10 17 -12 21 -26 5z"/>
<path d="M2330 5172 c-17 -8 -25 -32 -11 -32 5 0 12 7 15 16 3 8 10 12 16 9 5
-3 10 -1 10 4 0 12 -8 13 -30 3z"/>
<path d="M1927 5155 c-4 -8 -3 -16 1 -19 4 -3 9 4 9 15 2 23 -3 25 -10 4z"/>
<path d="M1998 5138 c-9 -7 -7 -8 8 -3 17 4 22 1 20 -11 0 -9 6 -19 14 -21 12
-4 13 -3 1 5 -7 5 -10 15 -6 21 5 9 10 9 20 1 9 -8 14 -7 18 2 5 16 -54 20
-75 6z"/>
<path d="M3030 5101 c0 -17 5 -33 12 -37 7 -5 9 -2 5 9 -3 9 -1 18 6 21 9 3 8
7 -2 14 -11 8 -11 10 0 15 10 4 9 6 -3 6 -13 1 -18 -7 -18 -28z"/>
<path d="M2140 5096 c0 -3 9 -10 19 -16 15 -7 22 -7 27 2 4 7 4 10 -1 6 -4 -4
-16 -3 -26 3 -11 5 -19 7 -19 5z"/>
<path d="M3000 5038 c0 -5 5 -6 10 -3 6 3 10 2 10 -4 0 -6 7 -8 15 -5 23 9 18
22 -10 22 -14 0 -25 -5 -25 -10z"/>
<path d="M1892 4941 c-10 -6 -9 -10 7 -14 12 -3 24 0 28 5 3 6 1 8 -5 4 -5 -3
-12 -2 -14 4 -2 5 -9 6 -16 1z"/>
<path d="M1906 4882 c-3 -5 1 -9 9 -9 8 0 12 4 9 9 -3 4 -7 8 -9 8 -2 0 -6 -4
-9 -8z"/>
<path d="M1489 4842 c-3 -20 -2 -29 4 -23 5 5 7 19 5 32 -3 20 -5 19 -9 -9z"/>
<path d="M1485 4770 c2 -11 -2 -20 -8 -20 -7 0 -4 -5 6 -11 9 -5 17 -15 17
-22 0 -7 -4 -6 -10 3 -5 8 -10 11 -10 5 1 -12 25 -45 33 -45 3 0 2 14 -3 30
-10 36 -10 34 -10 60 0 11 -4 20 -9 20 -6 0 -8 -9 -6 -20z"/>
<path d="M1472 4640 c0 -14 2 -19 5 -12 2 6 2 18 0 25 -3 6 -5 1 -5 -13z"/>
<path d="M3195 4610 c3 -5 8 -10 11 -10 2 0 4 5 4 10 0 6 -5 10 -11 10 -5 0
-7 -4 -4 -10z"/>
<path d="M1470 4599 c0 -5 5 -7 10 -4 6 3 10 8 10 11 0 2 -4 4 -10 4 -5 0 -10
-5 -10 -11z"/>
<path d="M1754 4574 c-7 -3 -10 -14 -7 -24 3 -11 9 -17 14 -14 5 3 6 10 3 16
-4 6 0 14 7 19 15 9 3 11 -17 3z"/>
<path d="M1798 4568 c5 -5 16 -8 23 -6 8 3 3 7 -10 11 -17 4 -21 3 -13 -5z"/>
<path d="M1461 4554 c0 -11 3 -14 6 -6 3 7 2 16 -1 19 -3 4 -6 -2 -5 -13z"/>
<path d="M1848 4563 c6 -2 18 -2 25 0 6 3 1 5 -13 5 -14 0 -19 -2 -12 -5z"/>
<path d="M3543 4549 c-2 -23 3 -25 10 -4 4 8 3 16 -1 19 -4 3 -9 -4 -9 -15z"/>
<path d="M1716 4552 c-3 -5 1 -9 9 -9 8 0 12 4 9 9 -3 4 -7 8 -9 8 -2 0 -6 -4
-9 -8z"/>
<path d="M1805 4543 c17 -3 35 -9 41 -14 8 -6 13 -5 17 4 4 10 -6 14 -41 14
-31 0 -36 -1 -17 -4z"/>
<path d="M6630 4485 c3 -74 2 -75 -26 -75 -14 0 -23 -4 -19 -9 3 -6 14 -8 25
-6 21 4 22 3 23 -62 0 -23 3 -40 7 -38 3 2 5 27 4 54 -2 28 1 49 6 46 14 -9
50 18 50 38 0 9 -5 26 -12 36 -11 18 -12 18 -30 -3 -18 -21 -18 -21 -16 16 1
21 -2 41 -6 45 -4 4 -7 -14 -6 -42z"/>
<path d="M6658 4523 c7 -3 16 -2 19 1 4 3 -2 6 -13 5 -11 0 -14 -3 -6 -6z"/>
<path d="M7201 4487 c-13 -21 -12 -21 5 -5 10 10 16 20 13 22 -3 3 -11 -5 -18
-17z"/>
<path d="M3450 4480 c0 -5 5 -10 10 -10 6 0 10 5 10 10 0 6 -4 10 -10 10 -5 0
-10 -4 -10 -10z"/>
<path d="M3540 4455 c0 -5 5 -17 10 -25 5 -8 10 -10 10 -5 0 6 -5 17 -10 25
-5 8 -10 11 -10 5z"/>
<path d="M7154 4428 l-19 -23 23 19 c12 11 22 21 22 23 0 8 -8 2 -26 -19z"/>
<path d="M3540 4335 c0 -5 5 -17 10 -25 5 -8 10 -10 10 -5 0 6 -5 17 -10 25
-5 8 -10 11 -10 5z"/>
<path d="M7069 4313 c-13 -16 -12 -17 4 -4 16 13 21 21 13 21 -2 0 -10 -8 -17
-17z"/>
<path d="M7483 4310 c1 -11 5 -20 9 -20 3 0 6 9 5 20 -1 11 -5 20 -9 20 -3 0
-6 -9 -5 -20z"/>
<path d="M7210 4299 c0 -5 5 -7 10 -4 6 3 10 8 10 11 0 2 -4 4 -10 4 -5 0 -10
-5 -10 -11z"/>
<path d="M6627 4259 c-7 -25 1 -49 16 -49 8 0 8 3 0 11 -8 8 -8 20 -3 35 5 13
6 24 1 24 -5 0 -11 -9 -14 -21z"/>
<path d="M7035 4260 c-4 -6 -11 -7 -17 -4 -7 4 -8 2 -4 -5 6 -9 11 -9 22 0 14
11 18 19 10 19 -3 0 -8 -5 -11 -10z"/>
<path d="M7485 4260 c3 -5 8 -10 11 -10 2 0 4 5 4 10 0 6 -5 10 -11 10 -5 0
-7 -4 -4 -10z"/>
<path d="M6985 4228 c3 -12 1 -25 -3 -28 -4 -3 -16 -16 -27 -30 l-20 -25 22
18 c35 30 59 2 28 -33 -14 -15 -14 -18 0 -30 13 -11 14 -10 9 4 -3 9 -1 22 4
29 13 15 12 57 0 57 -5 0 -5 8 0 18 10 19 5 42 -8 42 -5 0 -7 -10 -5 -22z"/>
<path d="M7188 4233 c7 -3 16 -2 19 1 4 3 -2 6 -13 5 -11 0 -14 -3 -6 -6z"/>
<path d="M7435 4220 c-3 -5 -1 -10 4 -10 6 0 11 5 11 10 0 6 -2 10 -4 10 -3 0
-8 -4 -11 -10z"/>
<path d="M3541 4204 c0 -11 3 -14 6 -6 3 7 2 16 -1 19 -3 4 -6 -2 -5 -13z"/>
<path d="M6606 4205 c-3 -9 -6 -24 -5 -33 0 -9 5 -4 10 12 9 32 6 48 -5 21z"/>
<path d="M7491 4204 c0 -11 3 -14 6 -6 3 7 2 16 -1 19 -3 4 -6 -2 -5 -13z"/>
<path d="M4418 4203 c7 -3 16 -2 19 1 4 3 -2 6 -13 5 -11 0 -14 -3 -6 -6z"/>
<path d="M6632 4170 c0 -17 3 -28 8 -25 5 3 7 15 5 27 -7 32 -12 31 -13 -2z"/>
<path d="M6700 4179 c0 -5 5 -7 10 -4 6 3 10 8 10 11 0 2 -4 4 -10 4 -5 0 -10
-5 -10 -11z"/>
<path d="M4460 4160 c0 -6 -4 -9 -9 -6 -5 4 -8 -2 -6 -11 2 -10 4 -22 4 -28 1
-5 5 -3 10 5 6 8 7 18 4 24 -3 5 -1 6 6 2 6 -4 9 -12 6 -17 -4 -5 -1 -9 4 -9
16 0 13 19 -4 36 -9 9 -15 11 -15 4z"/>
<path d="M7131 4144 c0 -11 3 -14 6 -6 3 7 2 16 -1 19 -3 4 -6 -2 -5 -13z"/>
<path d="M6571 4074 c-12 -42 -20 -79 -17 -82 3 -3 6 2 6 11 0 10 5 17 11 17
5 0 8 4 5 9 -3 5 1 32 10 61 8 28 14 54 11 56 -2 2 -14 -30 -26 -72z"/>
<path d="M7050 4140 c0 -5 5 -10 11 -10 5 0 7 5 4 10 -3 6 -8 10 -11 10 -2 0
-4 -4 -4 -10z"/>
<path d="M6703 4105 c0 -22 2 -30 4 -17 2 12 2 30 0 40 -3 9 -5 -1 -4 -23z"/>
<path d="M4622 4114 c-7 -8 -8 -14 -3 -14 10 0 25 19 20 25 -2 1 -10 -3 -17
-11z"/>
<path d="M6635 4120 c3 -6 1 -10 -6 -10 -8 0 -9 -3 0 -13 6 -8 8 -17 4 -20 -3
-4 -1 -7 6 -7 8 0 11 6 7 17 -4 9 -2 20 4 23 8 5 6 9 -5 13 -9 4 -13 3 -10 -3z"/>
<path d="M6398 4113 c7 -3 12 -24 12 -54 0 -27 4 -49 9 -49 4 0 6 12 3 26 -4
21 -2 25 9 19 12 -8 12 -6 0 8 -7 9 -10 17 -7 17 4 0 2 9 -4 20 -6 11 -16 20
-23 19 -9 0 -9 -2 1 -6z"/>
<path d="M6894 4088 l-19 -23 23 19 c12 11 22 21 22 23 0 8 -8 2 -26 -19z"/>
<path d="M6129 4068 c-1 -2 -2 -20 -3 -41 -1 -25 3 -37 13 -37 9 0 11 6 6 18
-4 9 -8 27 -8 40 -1 19 -4 28 -8 20z"/>
<path d="M6633 4045 c0 -8 4 -12 9 -9 5 3 6 10 3 15 -9 13 -12 11 -12 -6z"/>
<path d="M6698 4053 c7 -3 16 -2 19 1 4 3 -2 6 -13 5 -11 0 -14 -3 -6 -6z"/>
<path d="M6630 4005 c0 -8 2 -15 4 -15 2 0 6 7 10 15 3 8 1 15 -4 15 -6 0 -10
-7 -10 -15z"/>
<path d="M6412 3975 c0 -16 2 -22 5 -12 2 9 2 23 0 30 -3 6 -5 -1 -5 -18z"/>
<path d="M6127 3963 c4 -11 2 -14 -5 -9 -18 11 -14 0 5 -15 11 -10 14 -10 9
-1 -4 6 -2 12 3 12 16 0 13 17 -3 23 -11 4 -13 1 -9 -10z"/>
<path d="M1493 3955 c0 -8 4 -12 9 -9 4 3 8 9 8 15 0 5 -4 9 -8 9 -5 0 -9 -7
-9 -15z"/>
<path d="M5910 3910 c0 -5 5 -10 11 -10 5 0 7 5 4 10 -3 6 -8 10 -11 10 -2 0
-4 -4 -4 -10z"/>
<path d="M5419 3903 c-1 -5 -2 -32 -3 -60 -2 -46 0 -53 17 -53 15 0 17 3 8 14
-6 7 -12 34 -13 60 -2 42 -6 58 -9 39z"/>
<path d="M1115 3844 c16 -141 24 -196 29 -202 4 -3 5 10 2 29 -2 19 -7 66 -11
104 -10 94 -10 93 -17 101 -4 3 -5 -11 -3 -32z"/>
<path d="M5387 3851 c-2 -10 -1 -24 3 -30 4 -7 7 1 8 18 1 35 -3 40 -11 12z"/>
<path d="M5101 3820 c-7 -41 -6 -69 2 -61 5 5 7 24 4 42 -2 19 -5 27 -6 19z"/>
<path d="M4200 3780 c-8 -5 0 -7 18 -7 17 1 29 4 26 6 -8 9 -31 9 -44 1z"/>
<path d="M1140 3616 c0 -8 4 -17 8 -20 4 -2 8 4 8 15 0 10 -4 19 -8 19 -4 0
-8 -6 -8 -14z"/>
<path d="M1148 3555 c2 -14 8 -25 12 -25 4 0 5 11 2 25 -2 14 -8 25 -12 25 -4
0 -5 -11 -2 -25z"/>
<path d="M733 3215 c0 -8 4 -15 9 -15 4 0 8 4 8 9 0 6 -4 12 -8 15 -5 3 -9 -1
-9 -9z"/>
<path d="M688 3180 c2 -16 5 -30 7 -30 2 0 5 14 7 30 3 19 0 30 -7 30 -7 0
-10 -11 -7 -30z"/>
<path d="M616 3188 c3 -4 11 -5 19 -1 21 7 19 12 -4 10 -11 0 -18 -5 -15 -9z"/>
<path d="M585 3180 c3 -5 8 -10 11 -10 2 0 4 5 4 10 0 6 -5 10 -11 10 -5 0 -7
-4 -4 -10z"/>
<path d="M591 3144 c0 -11 3 -14 6 -6 3 7 2 16 -1 19 -3 4 -6 -2 -5 -13z"/>
<path d="M495 3090 c3 -5 8 -10 11 -10 2 0 4 5 4 10 0 6 -5 10 -11 10 -5 0 -7
-4 -4 -10z"/>
<path d="M285 3069 c-4 -6 -4 -13 -1 -16 3 -4 6 -1 6 6 0 7 5 9 12 5 7 -4 8
-3 4 4 -9 15 -13 15 -21 1z"/>
<path d="M348 3073 c7 -3 16 -2 19 1 4 3 -2 6 -13 5 -11 0 -14 -3 -6 -6z"/>
</g>
</svg>
